<svg width="40" height="45" viewBox="0 0 40 45" fill="none" xmlns="http://www.w3.org/2000/svg">
<path d="M1.99152 33.3018L3.64142 34.2544L22.022 2.41924L20.3721 1.46664L1.99152 33.3018Z" fill="#E535AB"/>
<path d="M38.3749 30.7585H1.61371V32.6637H38.3749V30.7585Z" fill="#E535AB"/>
<path d="M2.34111 31.8287L20.7286 42.4451L21.6812 40.7952L3.29371 30.1788L2.34111 31.8287Z" fill="#E535AB"/>
<path d="M18.3144 4.16005L36.7018 14.7764L37.6544 13.1265L19.267 2.51015L18.3144 4.16005Z" fill="#E535AB"/>
<path d="M2.34623 13.1191L3.29883 14.769L21.6863 4.15272L20.7337 2.50282L2.34623 13.1191Z" fill="#E535AB"/>
<path d="M17.982 2.41997L36.3626 34.2551L38.0125 33.3025L19.6319 1.46737L17.982 2.41997Z" fill="#E535AB"/>
<path d="M4.97655 11.856H3.07135V33.0886H4.97655V11.856Z" fill="#E535AB"/>
<path d="M36.9287 11.856H35.0235V33.0886H36.9287V11.856Z" fill="#E535AB"/>
<path d="M19.572 40.1977L20.4041 41.6389L36.3962 32.4056L35.5641 30.9644L19.572 40.1977Z" fill="#E535AB"/>
<path d="M39.4537 33.7084C38.3519 35.6251 35.8958 36.2793 33.9791 35.1775C32.0625 34.0757 31.4083 31.6196 32.5101 29.7029C33.6119 27.7862 36.068 27.132 37.9846 28.2338C39.9128 29.3471 40.567 31.7917 39.4537 33.7084Z" fill="#E535AB"/>
<path d="M7.47849 15.2416C6.37669 17.1583 3.92059 17.8125 2.00391 16.7107C0.0872337 15.6089 -0.566961 13.1528 0.534841 11.2361C1.63664 9.31941 4.09274 8.66522 6.00942 9.76702C7.92609 10.8803 8.58029 13.3249 7.47849 15.2416Z" fill="#E535AB"/>
<path d="M0.546315 33.7084C-0.555486 31.7917 0.098708 29.3471 2.01538 28.2338C3.93206 27.132 6.37668 27.7862 7.48996 29.7029C8.59176 31.6196 7.93757 34.0642 6.02089 35.1775C4.09274 36.2793 1.64812 35.6251 0.546315 33.7084Z" fill="#E535AB"/>
<path d="M32.5216 15.2416C31.4198 13.3249 32.074 10.8803 33.9907 9.76702C35.9073 8.66522 38.352 9.31941 39.4652 11.2361C40.567 13.1528 39.9128 15.5974 37.9962 16.7107C36.0795 17.8125 33.6234 17.1583 32.5216 15.2416Z" fill="#E535AB"/>
<path d="M20.0001 44.9441C17.785 44.9441 15.9946 43.1537 15.9946 40.9386C15.9946 38.7235 17.785 36.9331 20.0001 36.9331C22.2152 36.9331 24.0056 38.7235 24.0056 40.9386C24.0056 43.1422 22.2152 44.9441 20.0001 44.9441Z" fill="#E535AB"/>
<path d="M20.0001 8.01102C17.785 8.01102 15.9946 6.22059 15.9946 4.00551C15.9946 1.79043 17.785 0 20.0001 0C22.2152 0 24.0056 1.79043 24.0056 4.00551C24.0056 6.22059 22.2152 8.01102 20.0001 8.01102Z" fill="#E535AB"/>
</svg>
