<svg width="40" height="41" viewBox="0 0 40 41" fill="none" xmlns="http://www.w3.org/2000/svg">
<path d="M19.0075 0.017575C18.9306 0.0210818 18.6404 0.0456294 18.3606 0.0666702C14.8639 0.326173 11.3182 1.62369 8.41236 3.70673C7.45076 4.39406 6.69196 5.03931 5.84574 5.88796C0.981755 10.7694 -1.02189 17.755 0.499204 24.5406C1.12163 27.325 2.45039 30.1269 4.21276 32.3783C6.97869 35.9167 10.7692 38.41 15.0212 39.4901C16.7521 39.932 18.1893 40.1108 20.0041 40.1108C21.7945 40.1108 23.1127 39.9495 24.8191 39.5322C27.2704 38.929 29.4244 37.9366 31.5784 36.4252C33.6415 34.9733 35.5612 32.9394 36.9389 30.7477C38.7153 27.9142 39.7258 24.7861 39.9741 21.3529C40.0265 20.6305 39.9951 18.8421 39.9181 18.1056C39.7643 16.6433 39.3727 14.7146 39.1454 14.3113C39.0544 14.1535 38.7992 13.9501 38.6104 13.8835C38.5439 13.8624 38.3971 13.8449 38.2782 13.8449C37.7537 13.8449 37.3131 14.2832 37.3131 14.7987C37.3131 14.9215 37.369 15.216 37.4494 15.5352C38.1418 18.2354 38.1977 21.2021 37.6068 23.9094C36.8515 27.3776 35.166 30.4355 32.6239 32.9429C31.4385 34.1107 30.2951 34.9733 28.8159 35.822C25.3646 37.8033 21.0741 38.5538 17.0494 37.8805C13.9932 37.372 11.3391 36.1937 8.81799 34.2264C7.63259 33.3006 6.18843 31.7751 5.29326 30.4987C3.74769 28.2964 2.77559 25.9749 2.27206 23.2782C2.0168 21.9035 1.92938 20.08 2.04827 18.5966C2.2301 16.3452 2.79308 14.2552 3.74769 12.2738C4.18828 11.3515 4.46103 10.8711 4.98904 10.0751C6.06604 8.44091 7.49272 6.91194 9.06975 5.69859C10.9195 4.27132 13.1155 3.18772 15.3359 2.60559C16.5353 2.28998 17.4934 2.13217 18.7103 2.0445C23.1127 1.72889 27.3928 2.99835 30.879 5.66001C31.1378 5.85639 31.4105 6.07031 31.484 6.13694L31.6168 6.25266L31.5644 6.39995C31.2951 7.15742 31.4945 8.10075 32.0609 8.76002C32.3512 9.09668 32.8757 9.41229 33.3198 9.51749C33.624 9.59114 34.152 9.59114 34.4597 9.51749C35.2395 9.33163 35.9668 8.66183 36.1976 7.91839C36.4564 7.08728 36.306 6.26669 35.7745 5.6004C35.187 4.86397 34.1765 4.53433 33.2428 4.77981L33.04 4.83241L32.7533 4.59395C31.5889 3.61555 30.1797 2.7108 28.6971 1.9919C26.2913 0.824139 23.875 0.196422 21.1231 0.0280954C20.5951 -0.00346579 19.3467 -0.0104794 19.0075 0.017575Z" fill="black"/>
<path d="M16.9375 11.5549C16.5668 12.5158 15.7626 14.6198 15.1436 16.2294C14.5247 17.8391 13.2554 21.146 12.3218 23.5762C11.3916 26.0064 10.6188 28.0053 10.6118 28.0193C10.6013 28.0368 11.5839 28.0473 12.7903 28.0473H14.9898L15.1192 27.6861C15.1926 27.4898 15.4514 26.7954 15.6926 26.1432L16.1332 24.9614H19.4342C22.0637 24.9614 22.7351 24.9508 22.7246 24.9158C22.6896 24.8211 22.1511 23.2781 21.8644 22.454L21.5567 21.5773L19.3712 21.5598L17.1892 21.5422L18.6089 17.6181C19.4621 15.2616 20.0391 13.7186 20.0496 13.7536C20.0636 13.7852 20.6301 15.4018 21.3119 17.3446C21.9938 19.2874 23.1197 22.4856 23.8121 24.4529L25.0674 28.0298L27.2564 28.0403C28.4593 28.0438 29.4454 28.0403 29.4454 28.0333C29.4454 28.0263 29.1621 27.2794 28.8125 26.3781C28.4628 25.4734 27.7145 23.5271 27.148 22.0507C26.5815 20.5744 25.9451 18.9192 25.7318 18.3686C25.522 17.818 25.1549 16.8642 24.9171 16.247C24.6793 15.6298 24.0604 14.0132 23.5359 12.6525C23.0113 11.2919 22.5533 10.0961 22.5148 9.99437L22.4484 9.81201H17.6054L16.9375 11.5549Z" fill="black"/>
</svg>
