<svg width="40" height="40" viewBox="0 0 40 40" fill="none" xmlns="http://www.w3.org/2000/svg">
<path fill-rule="evenodd" clip-rule="evenodd" d="M23.5524 0C23.2632 0 22.9947 0.0620919 22.7467 0.144828C23.2736 0.496415 23.5628 0.961784 23.7075 1.48908C23.7179 1.56158 23.7385 1.61327 23.7487 1.6856C23.7591 1.74769 23.7695 1.80963 23.7695 1.87172C23.8107 2.78181 23.5318 2.89543 23.3355 3.4333C23.0359 4.12623 23.1186 4.87069 23.4802 5.47048C23.5112 5.54282 23.5524 5.62555 23.6042 5.69789C23.2116 3.08171 25.3913 2.68867 25.7941 1.87172C25.8251 1.15814 25.2362 0.68253 24.7715 0.351587C24.3271 0.0827358 23.9242 0 23.5524 0ZM26.8375 0.589393C26.796 0.827358 26.8271 0.765266 26.8167 0.88929C26.8065 0.972026 26.8065 1.07541 26.7961 1.15814C26.7755 1.24088 26.7549 1.32361 26.7239 1.40635C26.7031 1.48908 26.6722 1.57182 26.6412 1.65456C26.5998 1.73729 26.569 1.80979 26.5277 1.89236C26.4965 1.93381 26.4759 1.9751 26.4449 2.01655L26.3829 2.10952C26.3313 2.18202 26.2796 2.25435 26.228 2.31644C26.166 2.37853 26.1145 2.45087 26.0421 2.50256V2.51296C25.98 2.56465 25.9182 2.62658 25.8458 2.67843C25.6288 2.84374 25.3809 2.96793 25.1536 3.123C25.0813 3.17469 25.0091 3.21613 24.947 3.27823C24.8748 3.32992 24.8127 3.38161 24.7509 3.44354C24.6785 3.50563 24.6268 3.56772 24.5648 3.64006C24.5132 3.70215 24.4513 3.77448 24.4099 3.84697C24.3583 3.91931 24.3066 3.99164 24.2652 4.06414C24.224 4.14687 24.193 4.21921 24.1517 4.30194C24.1207 4.38468 24.0897 4.45717 24.0691 4.53975C24.0415 4.62495 24.0173 4.71122 23.9967 4.79836C23.9864 4.83964 23.9864 4.89133 23.976 4.93278C23.9657 4.97407 23.9657 5.01552 23.9554 5.05681C23.9554 5.13954 23.945 5.23268 23.945 5.31542C23.945 5.37735 23.945 5.43944 23.9554 5.50153C23.9554 5.58427 23.9658 5.667 23.9864 5.75998C23.9968 5.84272 24.0174 5.92545 24.0381 6.00819C24.0691 6.09092 24.0897 6.17366 24.1207 6.25624C24.1415 6.30808 24.1723 6.35977 24.193 6.40122L21.8171 5.48073C21.4143 5.36711 21.0217 5.26356 20.6188 5.17059L19.968 5.01536C19.3464 4.89128 18.719 4.79814 18.0881 4.73626C18.0673 4.73626 18.0569 4.72586 18.0363 4.72586C17.4165 4.66377 16.807 4.63288 16.1872 4.63288C15.7327 4.63288 15.2782 4.65353 14.834 4.68457C14.2038 4.72586 13.5737 4.8086 12.9437 4.91198C12.7886 4.93278 12.6335 4.96367 12.4788 4.99471C12.1584 5.05681 11.8486 5.12914 11.549 5.20163L11.0842 5.32566C10.9291 5.38775 10.7846 5.46008 10.6399 5.52218L10.2991 5.6774C10.2783 5.68765 10.2577 5.68765 10.2475 5.69789C10.1442 5.74958 10.0512 5.79103 9.95813 5.84272C9.92727 5.85312 9.90649 5.86352 9.88587 5.87376C9.77237 5.92545 9.65871 5.98738 9.56567 6.03923C9.49341 6.07028 9.421 6.11157 9.35913 6.14261C9.32812 6.16342 9.28672 6.18406 9.26609 6.1943C9.17306 6.24599 9.08018 6.29768 8.99753 6.34953C8.90449 6.40106 8.82184 6.45291 8.74959 6.5046C8.67733 6.55629 8.60491 6.59758 8.54305 6.64927C8.53266 6.65967 8.52227 6.65967 8.51204 6.67007C8.45001 6.71136 8.37776 6.76305 8.31573 6.81474L8.29495 6.83554L8.1402 6.95957C8.11942 6.96981 8.09864 6.99062 8.07818 7.00086C8.02654 7.0423 7.97491 7.09399 7.92311 7.13528C7.91288 7.15609 7.89226 7.16633 7.88187 7.17673C7.81985 7.23882 7.75798 7.29035 7.69595 7.35244C7.68556 7.35244 7.68556 7.36285 7.67517 7.37325C7.61331 7.42494 7.55128 7.48687 7.48926 7.54896C7.47902 7.55936 7.47903 7.56977 7.46863 7.56977C7.41446 7.62242 7.36276 7.67759 7.31373 7.73508C7.29295 7.75588 7.2621 7.77653 7.24147 7.79717C7.18984 7.85926 7.12781 7.92119 7.06579 7.98328C7.0554 8.00409 7.03478 8.01433 7.02454 8.03497C6.9419 8.11771 6.86948 8.20045 6.78683 8.28318L6.75598 8.31423C6.59069 8.48994 6.415 8.66582 6.22908 8.82088C6.04593 8.9845 5.85271 9.13645 5.65055 9.27585C5.45023 9.41651 5.24341 9.54767 5.03078 9.66889C4.81995 9.78468 4.60266 9.88828 4.37999 9.97919C4.16029 10.0726 3.93623 10.1554 3.70858 10.2272C3.27472 10.3204 2.83047 10.4961 2.44825 10.5271C2.3656 10.5271 2.27272 10.5479 2.19007 10.5582C2.09704 10.579 2.01439 10.5996 1.93174 10.6203L1.68396 10.7134C1.60115 10.7443 1.51851 10.7857 1.43586 10.827C1.3636 10.8787 1.28095 10.9202 1.2087 10.9719C1.13628 11.0235 1.06402 11.0855 1.002 11.1477C0.929743 11.1994 0.857486 11.2718 0.795461 11.3338C0.733435 11.4062 0.67157 11.4683 0.619775 11.5406C0.568141 11.6233 0.506275 11.6958 0.464871 11.7784C0.413237 11.8509 0.361602 11.9336 0.320358 12.0164C0.278795 12.1094 0.237711 12.1921 0.206698 12.2852C0.17409 12.3743 0.143072 12.4639 0.11366 12.5541C0.0930382 12.6368 0.0724163 12.7195 0.0620255 12.8021C0.0620255 12.8127 0.0516346 12.8229 0.0516346 12.8333C0.0310127 12.9263 0.0310128 13.0505 0.0206219 13.1124C0.0103909 13.1849 0 13.2469 0 13.3193C0 13.3606 9.52837e-09 13.4123 0.0103909 13.4538C0.0207817 13.5261 0.0311726 13.5882 0.0517944 13.6503C0.0724163 13.7122 0.0930382 13.7743 0.124051 13.8364V13.8466C0.155064 13.9087 0.196307 13.9708 0.237551 14.0329C0.279115 14.0949 0.320358 14.1569 0.371833 14.219C0.423628 14.2707 0.485653 14.3327 0.547679 14.3845C0.609544 14.4464 0.67157 14.4981 0.743826 14.55C0.991768 14.7671 1.05379 14.8395 1.37399 15.0049C1.42563 15.036 1.47726 15.0566 1.53929 15.0877C1.54968 15.0877 1.55991 15.0979 1.5703 15.0979C1.5703 15.1187 1.5703 15.129 1.58053 15.1498C1.59092 15.2325 1.61154 15.3152 1.63232 15.3978C1.65199 15.483 1.67961 15.5661 1.71481 15.646C1.74583 15.7081 1.76661 15.7702 1.79746 15.8323C1.80785 15.8529 1.81824 15.8736 1.82847 15.884C1.86988 15.9667 1.91112 16.0391 1.95252 16.1114L2.10743 16.3286C2.15906 16.3906 2.22093 16.463 2.28311 16.5251C2.34498 16.5872 2.407 16.6387 2.47926 16.7009C2.47926 16.7009 2.48965 16.7112 2.50004 16.7112C2.56191 16.7629 2.62393 16.8147 2.68596 16.856C2.75822 16.9077 2.83047 16.9492 2.91312 16.9904C2.98554 17.0319 3.06818 17.0732 3.15083 17.1041C3.2127 17.1353 3.28511 17.1559 3.35737 17.1766C3.36776 17.187 3.37799 17.187 3.39861 17.1974C3.44018 17.2076 3.49165 17.218 3.53289 17.2283C3.50204 17.7868 3.49165 18.3141 3.57446 18.5002C3.66718 18.7071 4.12182 18.0763 4.5763 17.3524C4.51427 18.0658 4.47303 18.9036 4.5763 19.1517C4.68996 19.4103 5.30973 18.6037 5.84686 17.7143C13.171 16.0184 19.8545 21.0856 20.557 28.2416C20.4227 27.1247 19.0487 26.5043 18.4185 26.6593C18.1087 27.4246 17.5818 28.407 16.7347 29.0172C16.8087 28.3266 16.7739 27.6287 16.6315 26.949C16.4043 27.9004 15.96 28.7897 15.3505 29.5549C14.3693 29.6273 13.3879 29.1516 12.8714 28.4379C12.83 28.407 12.8198 28.3451 12.7888 28.3035C12.7577 28.2311 12.7267 28.1588 12.7061 28.0865C12.676 28.0171 12.6551 27.9441 12.6441 27.8693C12.6337 27.7968 12.6337 27.7245 12.6337 27.6418V27.4865C12.6441 27.4142 12.6647 27.3419 12.6853 27.2695C12.7061 27.197 12.7267 27.1247 12.7577 27.0524C12.799 26.9799 12.83 26.9075 12.8816 26.8352C13.0573 26.3388 13.0573 25.9355 12.7371 25.6977C12.6751 25.6571 12.6094 25.6224 12.5408 25.5942C12.4994 25.5839 12.4478 25.5633 12.4065 25.5529C12.3755 25.5425 12.3549 25.5321 12.3239 25.5218C12.2515 25.501 12.1792 25.4804 12.107 25.4701C12.0364 25.4497 11.9634 25.4393 11.89 25.4391C11.8176 25.4287 11.735 25.4183 11.6627 25.4183C11.6111 25.4183 11.5594 25.4289 11.5076 25.4289C11.4252 25.4289 11.3529 25.4391 11.2806 25.4597C11.2082 25.4701 11.136 25.4805 11.0636 25.5012C10.9913 25.522 10.9189 25.5426 10.8466 25.5735C10.7744 25.6046 10.7123 25.6356 10.6401 25.6667C10.5781 25.6977 10.516 25.739 10.4438 25.77C8.03693 27.3419 9.47279 31.0234 11.1152 32.0885C10.4954 32.2021 9.86525 32.3366 9.68972 32.471L9.66894 32.4918C10.1133 32.7607 10.5781 32.9882 11.0636 33.1847C11.7247 33.4017 12.4272 33.5983 12.7371 33.681V33.6914C13.593 33.8671 14.4682 33.9296 15.3403 33.8775C19.9164 33.557 23.6662 30.072 24.348 25.4805C24.3688 25.5735 24.3894 25.6563 24.4101 25.7494C24.4411 25.9355 24.4823 26.1319 24.5029 26.3285V26.3388C24.5237 26.4319 24.534 26.5251 24.5443 26.6076V26.6492C24.5547 26.7421 24.5651 26.8352 24.5651 26.9181C24.5754 27.0317 24.5856 27.1453 24.5856 27.2593V27.4248C24.5856 27.4764 24.596 27.5384 24.596 27.5901C24.596 27.6522 24.5856 27.7143 24.5856 27.7763V27.921C24.5856 27.9935 24.5752 28.0554 24.5752 28.1279C24.5752 28.1692 24.5752 28.2107 24.565 28.2624C24.565 28.3347 24.5546 28.407 24.5546 28.4898C24.5442 28.5208 24.5442 28.5519 24.5442 28.5829C24.534 28.6656 24.5236 28.7381 24.5132 28.8207C24.5132 28.8517 24.5132 28.8828 24.5029 28.9138C24.4925 29.0172 24.4719 29.1104 24.4615 29.2137V29.2344C24.4409 29.3275 24.4203 29.4309 24.3995 29.524V29.5549L24.3376 29.8342C24.3376 29.8446 24.3273 29.8652 24.3273 29.8756C24.3065 29.9686 24.2859 30.0617 24.255 30.1547V30.1858C24.224 30.2893 24.193 30.3823 24.1723 30.4754C24.162 30.4857 24.162 30.4961 24.162 30.4961L24.0689 30.8062C24.0277 30.9097 23.9967 31.0027 23.9554 31.1061C23.914 31.2096 23.883 31.313 23.8418 31.406C23.8004 31.5095 23.7591 31.6025 23.7177 31.7059H23.7075C23.6659 31.799 23.6248 31.9024 23.5732 31.9955C23.5628 32.0266 23.5524 32.0472 23.5422 32.0679C23.5318 32.0783 23.5318 32.0887 23.5214 32.0989C22.85 33.4536 21.8584 34.6428 20.6187 35.5735C20.536 35.6252 20.4534 35.6871 20.3709 35.7494C20.3501 35.77 20.3191 35.7803 20.2985 35.8011C20.2262 35.8528 20.1538 35.9045 20.0713 35.9561L20.1022 36.0182H20.1126L20.5464 35.9561H20.5568C20.8254 35.9147 21.0939 35.863 21.3625 35.8113C21.4348 35.8009 21.5176 35.7803 21.5898 35.7596C21.6415 35.7492 21.6827 35.739 21.7343 35.7286C21.8067 35.7183 21.879 35.6975 21.9513 35.6873C22.0133 35.6665 22.0753 35.6562 22.1373 35.6356C23.1703 35.3874 24.1723 35.0461 25.1331 34.6428C23.4905 36.8869 21.2901 38.6965 18.7179 39.8857C19.906 39.803 21.0939 39.6066 22.2406 39.2757C26.4037 38.045 29.9056 35.2426 32.0024 31.4681C31.5768 33.8624 30.628 36.1329 29.2237 38.1174C30.2248 37.4563 31.1498 36.6864 31.9818 35.8217C34.2958 33.4019 35.8143 30.3306 36.3308 27.0317C36.6832 28.6683 36.7842 30.3491 36.6304 32.0162C44.0886 21.6027 37.2501 10.8065 34.3886 7.9628C34.3784 7.942 34.368 7.93175 34.368 7.91111C34.3578 7.92135 34.3578 7.92135 34.3578 7.93176C34.3578 7.92135 34.3578 7.92135 34.3474 7.91095C34.3474 8.03513 34.337 8.15916 34.3266 8.28334C34.2958 8.52115 34.2648 8.74871 34.2234 8.97627C34.1717 9.20368 34.1099 9.43124 34.0478 9.65864C33.9743 9.88258 33.8917 10.1034 33.8 10.3205C33.705 10.5348 33.6016 10.7453 33.4899 10.9514C33.3764 11.1477 33.2524 11.3546 33.1181 11.5408C32.9852 11.7331 32.8439 11.9195 32.6945 12.0993C32.5396 12.2854 32.3744 12.4509 32.2091 12.6162C32.1118 12.7053 32.0119 12.7916 31.9095 12.8748C31.8269 12.9471 31.7545 13.0092 31.6718 13.0815C31.4859 13.2264 31.3 13.3608 31.0935 13.4848C30.8972 13.609 30.6906 13.733 30.4839 13.8366C30.267 13.9399 30.0501 14.0329 29.8333 14.1261C29.6162 14.2088 29.3889 14.2813 29.1617 14.3432C28.9333 14.4048 28.7024 14.4566 28.4695 14.4984C28.232 14.5397 27.9944 14.5604 27.7671 14.581C27.6018 14.5914 27.4365 14.6018 27.2712 14.6018C27.0337 14.6018 26.7961 14.581 26.5688 14.5602C26.3313 14.5397 26.0937 14.5087 25.8664 14.457C25.6288 14.4154 25.4015 14.3535 25.1742 14.2811H25.164C25.3913 14.2603 25.6184 14.2397 25.8458 14.1984C26.0788 14.1576 26.3098 14.1058 26.538 14.0432C26.7651 13.9817 26.9892 13.9093 27.2094 13.8262C27.4365 13.7434 27.6535 13.64 27.86 13.5365C28.0771 13.4331 28.2734 13.3193 28.4799 13.1953C28.6762 13.0609 28.8724 12.9265 29.0585 12.7816C29.2435 12.6376 29.4194 12.4822 29.5852 12.3163C29.7609 12.161 29.9158 11.9853 30.0707 11.8096C30.2217 11.6285 30.3664 11.4422 30.5045 11.2511C30.5253 11.2202 30.5459 11.1788 30.5666 11.1477C30.6698 10.9823 30.7731 10.8168 30.8661 10.6513C30.9798 10.4463 31.0832 10.2358 31.1761 10.0206C31.2694 9.80417 31.3521 9.58328 31.4239 9.35875C31.4963 9.14159 31.5479 8.91402 31.5996 8.68662C31.641 8.44881 31.6822 8.22125 31.7029 7.99369C31.7236 7.75588 31.7443 7.51808 31.7443 7.29051C31.7443 7.12504 31.7339 6.95957 31.7235 6.7941C31.703 6.55629 31.672 6.32889 31.641 6.10116C31.6003 5.86792 31.5485 5.63674 31.4859 5.40839C31.4137 5.19123 31.3414 4.96383 31.2588 4.74667C31.1761 4.52951 31.0728 4.31234 30.9694 4.10542C30.8559 3.89866 30.7423 3.69191 30.6182 3.49539C30.4864 3.3016 30.3486 3.11193 30.2051 2.92664C30.0496 2.74826 29.8911 2.57241 29.7299 2.39918C29.6428 2.31046 29.5533 2.22428 29.4613 2.14073C28.9985 1.78094 28.5194 1.44276 28.0254 1.12726C27.9532 1.08581 27.8912 1.05492 27.8187 1.02388C27.4779 0.806714 27.1577 0.692932 26.8375 0.589553V0.589393Z" fill="#E0234E"/>
</svg>
