<svg width="40" height="44" viewBox="0 0 40 44" fill="none" xmlns="http://www.w3.org/2000/svg">
<path d="M21.8038 0.45957C20.7118 -0.15457 19.2882 -0.151809 18.1953 0.45957C12.7213 3.48041 7.24741 6.50217 1.77255 9.52163C0.707217 10.0821 -0.0113251 11.2261 0.000135121 12.4136V30.6658C-0.00755738 31.8765 0.748035 33.0316 1.84084 33.5843C3.41341 34.4209 4.94123 35.3425 6.54222 36.1234C8.39155 37.0321 10.7053 37.2331 12.5772 36.2854C14.0967 35.4999 14.7716 33.7531 14.7697 32.1477C14.782 26.124 14.7716 20.1001 14.7744 14.0764C14.8106 13.8086 14.6096 13.5225 14.3176 13.529C13.6181 13.5179 12.9176 13.5225 12.218 13.5271C11.9537 13.5021 11.6957 13.7217 11.7157 13.9874C11.7062 19.9723 11.7175 25.959 11.71 31.9449C11.7252 32.7729 11.1659 33.5687 10.3679 33.8484C8.52492 34.4943 3.26458 31.0788 3.26458 31.0788C3.07154 30.9894 2.94895 30.78 2.96787 30.5721C2.96787 24.5502 2.96881 18.5282 2.96787 12.5072C2.94134 12.2645 3.09095 12.0458 3.31388 11.9467C8.76974 8.9437 14.2228 5.93314 19.6786 2.92825C19.8681 2.80178 20.1323 2.80216 20.3214 2.92917C25.7772 5.93314 31.2312 8.94094 36.688 11.9441C36.9117 12.0431 37.0549 12.2654 37.0322 12.5072C37.0312 18.5282 37.034 24.5502 37.0303 30.5712C37.0464 30.7843 36.9364 30.9908 36.7373 31.0843C31.3324 34.0711 25.866 36.9615 20.51 40.035C20.2763 40.1691 20.0116 40.321 19.7498 40.1733C18.3413 39.3942 16.9499 38.5847 15.5461 37.7982C15.3935 37.7029 15.1991 37.6621 15.0399 37.7686C14.4104 38.1002 13.8185 38.3689 13.0958 38.655C12.0806 39.0569 12.2428 39.2213 13.1582 39.7546C14.8 40.6837 16.4445 41.6091 18.0861 42.5391C19.1669 43.2136 20.619 43.2616 21.7346 42.6383C27.2094 39.6213 32.6824 36.6006 38.1582 33.5836C39.2482 33.0277 40.0076 31.8772 39.9999 30.6657V12.4136C40.0104 11.2502 39.3193 10.1266 38.2862 9.55784C32.7933 6.52227 27.2977 3.4933 21.8038 0.45957Z" fill="#8CC84B"/>
<path d="M30.0644 14.1635C27.9157 13.0139 25.3594 12.9527 22.9715 13.1029C21.2465 13.2733 19.4322 13.7494 18.1753 14.9859C16.8863 16.2291 16.6057 18.2364 17.218 19.8593C17.6568 21.0059 18.7612 21.7517 19.9033 22.1461C21.3746 22.6655 22.9198 22.8261 24.4656 22.9867C25.8754 23.1333 27.2857 23.2798 28.6408 23.6987C29.1943 23.8822 29.839 24.1628 30.0085 24.765C30.165 25.4782 29.9934 26.3073 29.4143 26.8029C27.5749 28.2588 22.4583 28.0357 20.6409 26.8899C19.9062 26.4017 19.5895 25.5375 19.4608 24.7141C19.4465 24.4574 19.2399 24.2221 18.9612 24.2415C18.2636 24.2333 17.5659 24.2351 16.8682 24.2406C16.6247 24.2202 16.3717 24.3934 16.3583 24.6418C16.215 28.4136 19.679 30.0579 22.929 30.42C24.7859 30.5969 26.6834 30.5868 28.5119 30.1884C29.8864 29.8754 31.2644 29.2991 32.2106 28.2404C33.3774 26.9538 33.6067 25.0382 33.0835 23.4356C32.6835 22.2399 31.5403 21.4728 30.3716 21.0782C28.7825 20.5333 26.899 20.2404 25.4597 20.1033C23.3675 19.904 20.8813 19.9854 20.2892 18.6106C20.0531 17.8908 20.254 16.9969 20.9156 16.5542C22.6659 15.3669 26.2281 15.5246 28.0408 16.4115C28.8731 16.8283 29.3554 17.6843 29.5545 18.5485C29.5914 18.8024 29.7622 19.0672 30.0561 19.0561C30.7489 19.0699 31.4418 19.0598 32.1346 19.0607C32.3726 19.0775 32.6332 18.9431 32.6797 18.6994C32.6503 16.8932 31.728 15.0444 30.0644 14.1635Z" fill="#8CC84B"/>
</svg>
