<svg width="40" height="40" viewBox="0 0 40 40" fill="none" xmlns="http://www.w3.org/2000/svg">
<path d="M0 20V0H40V40H0" fill="#007ACC"/>
<path d="M8.77002 20.07V21.7H13.97V36.5H17.66V21.7H22.86V20.1C22.86 19.2 22.86 18.47 22.82 18.45C22.82 18.42 19.65 18.41 15.8 18.41L8.80002 18.44V20.08L8.77002 20.07ZM32.1401 18.4C33.1601 18.64 33.9401 19.1 34.6401 19.83C35.0101 20.23 35.5601 20.93 35.6001 21.11C35.6001 21.17 33.8701 22.34 32.8201 22.99C32.7801 23.02 32.6201 22.85 32.4601 22.59C31.9401 21.85 31.4101 21.53 30.5801 21.47C29.38 21.39 28.58 22.02 28.58 23.07C28.58 23.39 28.6401 23.57 28.76 23.83C29.0301 24.38 29.5301 24.71 31.0801 25.39C33.9401 26.62 35.1801 27.43 35.9301 28.59C36.7801 29.89 36.9701 31.93 36.4001 33.46C35.7601 35.13 34.2001 36.26 31.9701 36.63C31.2701 36.75 29.6701 36.73 28.9201 36.6C27.32 36.3 25.79 35.5 24.85 34.47C24.48 34.07 23.77 33 23.81 32.93L24.19 32.69L25.69 31.82L26.82 31.16L27.08 31.51C27.41 32.03 28.15 32.73 28.58 32.97C29.8801 33.64 31.6201 33.55 32.4801 32.77C32.8501 32.43 33.0101 32.07 33.0101 31.57C33.0101 31.11 32.9401 30.9 32.7101 30.55C32.3901 30.11 31.7501 29.75 29.9501 28.95C27.88 28.07 27 27.51 26.18 26.65C25.71 26.13 25.28 25.32 25.08 24.65C24.93 24.07 24.88 22.65 25.02 22.08C25.45 20.08 26.96 18.68 29.1201 18.28C29.8201 18.14 31.4701 18.2 32.1601 18.38L32.1401 18.4Z" fill="white"/>
</svg>
