<svg width="40" height="40" viewBox="0 0 40 40" fill="none" xmlns="http://www.w3.org/2000/svg">
<circle cx="20" cy="20" r="20" fill="#1794D4"/>
<path d="M22.8571 7.14307H20V10.0002H22.8571V7.14307Z" fill="white"/>
<path d="M11.4285 11.4288H14.2857V14.2859H11.4285V11.4288Z" fill="white"/>
<path d="M5.71647 21.3451C5.9606 25.4898 8.42893 31.4288 17.1428 31.4288C26.8571 31.4288 31.1904 24.286 32.1428 20.7145C33.3333 20.7145 36 20.0002 37.1428 17.1431C36.4285 16.4288 33.5714 16.4288 32.1428 17.1431C32.1428 16.0002 31.4285 13.5716 30 12.8574C29.0476 13.8097 27.5714 16.2859 29.2857 18.5716C28.5714 20.0002 26.6667 20.0002 25.7143 20.0002H7.06126C6.30487 20.0002 5.672 20.59 5.71647 21.3451Z" fill="white"/>
<path d="M9.99998 15.7145H7.14284V18.5716H9.99998V15.7145Z" fill="white"/>
<path d="M11.4285 15.7145H14.2857V18.5716H11.4285V15.7145Z" fill="white"/>
<path d="M18.5714 15.7145H15.7143V18.5716H18.5714V15.7145Z" fill="white"/>
<path d="M20 15.7145H22.8571V18.5716H20V15.7145Z" fill="white"/>
<path d="M27.1428 15.7145H24.2857V18.5716H27.1428V15.7145Z" fill="white"/>
<path d="M18.5714 11.4288H15.7143V14.2859H18.5714V11.4288Z" fill="white"/>
<path d="M20 11.4288H22.8571V14.2859H20V11.4288Z" fill="white"/>
</svg>
