<svg width="40" height="36" viewBox="0 0 40 36" fill="none" xmlns="http://www.w3.org/2000/svg">
<path d="M31.6371 10.8092C32.2882 7.65534 32.4279 5.23637 32.007 3.47986C31.7567 2.43519 31.2991 1.58297 30.6032 0.968098C29.8686 0.318957 28.9398 0.000423625 27.8962 0.000423625C26.1745 0.000423625 24.3646 0.784699 22.4304 2.27462C21.6414 2.88233 20.8226 3.61482 19.9723 4.47252C19.9046 4.38548 19.8281 4.30338 19.7429 4.2275C17.3387 2.08736 15.3147 0.757669 13.5835 0.244979C12.5541 -0.0598662 11.5877 -0.088909 10.7076 0.206954C9.7786 0.519257 9.03839 1.16483 8.51615 2.06908C7.65425 3.56141 7.42696 5.52234 7.74829 7.94358C7.87927 8.93051 8.10319 10.0056 8.41956 11.1704C8.3002 11.1848 8.18054 11.2112 8.0621 11.2504C5.0118 12.2602 2.85188 13.3461 1.5442 14.587C0.766174 15.3253 0.25811 16.1473 0.0744514 17.0572C-0.119404 18.0176 0.0696182 18.9809 0.591255 19.8845C1.45153 21.3747 3.03334 22.5499 5.28682 23.4809C6.19167 23.8546 7.21546 24.1932 8.35931 24.4976C8.30712 24.6154 8.26663 24.7404 8.23955 24.8715C7.58844 28.0254 7.44872 30.4443 7.86958 32.2008C8.11989 33.2455 8.57751 34.0977 9.27337 34.7126C10.008 35.3618 10.9368 35.6803 11.9805 35.6803C13.7021 35.6803 15.512 34.896 17.4462 33.4061C18.2436 32.7919 19.0714 32.0503 19.9315 31.1808C20.02 31.319 20.1286 31.4476 20.2571 31.562C22.6613 33.7021 24.6853 35.0318 26.4165 35.5445C27.4459 35.8493 28.4123 35.8784 29.2924 35.5825C30.2214 35.2702 30.9616 34.6246 31.4839 33.7204C32.3457 32.2281 32.573 30.2671 32.2517 27.8459C32.116 26.8233 31.8805 25.7061 31.5458 24.4924C31.6766 24.4792 31.808 24.4515 31.9379 24.4085C34.9882 23.3988 37.1481 22.3129 38.4558 21.072C39.2338 20.3336 39.7419 19.5116 39.9256 18.6017C40.1194 17.6413 39.9304 16.678 39.4087 15.7745C38.5485 14.2843 36.9667 13.109 34.7132 12.1781C33.7814 11.7932 32.7234 11.4456 31.5381 11.1342C31.5803 11.0309 31.6137 10.9223 31.6371 10.8092Z" fill="#002C4B"/>
<path fill-rule="evenodd" clip-rule="evenodd" d="M16.9257 11.3684H23.0754C23.4525 11.3684 23.8008 11.5701 23.9884 11.8971L27.0689 17.2656C27.2551 17.59 27.2551 17.9889 27.0689 18.3134L23.9884 23.6818C23.8008 24.0088 23.4525 24.2105 23.0754 24.2105H16.9257C16.5486 24.2105 16.2003 24.0088 16.0127 23.6818L12.9322 18.3134C12.746 17.9889 12.746 17.59 12.9322 17.2656L16.0127 11.8971C16.2003 11.5701 16.5486 11.3684 16.9257 11.3684ZM22.3132 12.6898C22.6905 12.6898 23.0389 12.8917 23.2265 13.219L25.5459 17.2661C25.7317 17.5903 25.7317 17.9887 25.5459 18.3129L23.2265 22.3599C23.0389 22.6872 22.6905 22.8891 22.3132 22.8891H17.6879C17.3106 22.8891 16.9622 22.6872 16.7746 22.3599L14.4552 18.3129C14.2694 17.9887 14.2694 17.5903 14.4552 17.2661L16.7746 13.219C16.9622 12.8917 17.3106 12.6898 17.6879 12.6898H22.3132ZM21.4907 14.135H18.5104C18.1335 14.135 17.7854 14.3365 17.5977 14.6633L16.103 17.2651C15.9165 17.5898 15.9165 17.9891 16.103 18.3138L17.5977 20.9156C17.7854 21.2424 18.1335 21.4439 18.5104 21.4439H21.4907C21.8676 21.4439 22.2157 21.2424 22.4034 20.9156L23.8981 18.3138C24.0846 17.9891 24.0846 17.5898 23.8981 17.2651L22.4034 14.6633C22.2157 14.3365 21.8676 14.135 21.4907 14.135ZM20.6988 15.5183C21.0754 15.5183 21.4233 15.7195 21.6111 16.0459L22.3123 17.2644C22.4994 17.5895 22.4994 17.9895 22.3123 18.3145L21.6111 19.533C21.4233 19.8594 21.0754 20.0606 20.6988 20.0606H19.3023C18.9257 20.0606 18.5778 19.8594 18.39 19.533L17.6888 18.3145C17.5017 17.9895 17.5017 17.5895 17.6888 17.2644L18.39 16.0459C18.5778 15.7195 18.9257 15.5183 19.3023 15.5183H20.6988ZM20.0008 16.881C19.6757 16.881 19.3757 17.0542 19.2133 17.3352C19.0509 17.6163 19.0509 17.9626 19.2133 18.2437C19.3757 18.5248 19.6757 18.6979 20.0003 18.6979C20.3254 18.6979 20.6254 18.5248 20.7878 18.2437C20.9502 17.9626 20.9502 17.6163 20.7878 17.3352C20.6254 17.0542 20.3254 16.881 20.0008 16.881ZM12.6316 17.7897H14.2669H12.6316Z" fill="#FFD94C"/>
<path fill-rule="evenodd" clip-rule="evenodd" d="M11.5495 20.7068C11.8255 20.549 12.176 20.6472 12.3321 20.926L12.4321 21.1038C13.2329 22.5226 14.0671 23.8694 14.9348 25.1441C15.9595 26.6494 17.1119 28.1734 18.3921 29.7159C18.593 29.958 18.5652 30.318 18.3296 30.5258L18.2008 30.6387C13.9676 34.3374 11.2163 35.0762 9.94691 32.8551C8.70523 30.6826 9.15458 26.7331 11.295 21.0068C11.3424 20.8798 11.4325 20.7736 11.5495 20.7068ZM29.5861 25.0612C29.8918 25.0073 30.1843 25.2087 30.2441 25.5145L30.2763 25.6812C31.3226 31.1568 30.5859 33.8946 28.0664 33.8946C25.602 33.8946 22.4649 31.5597 18.6553 26.8898C18.5708 26.7862 18.5251 26.6562 18.5263 26.5223C18.529 26.2063 18.7864 25.9524 19.1012 25.9552L19.302 25.9566C20.9064 25.9653 22.4661 25.9097 23.9812 25.7896C25.7703 25.6478 27.6386 25.4051 29.5861 25.0612ZM31.0334 13.434C31.1436 13.1373 31.4754 12.9817 31.7799 13.0839L31.9458 13.14C37.386 14.9931 39.4531 17.0297 38.147 19.2497C36.8694 21.4212 33.1546 23.0021 27.0024 23.9922C26.866 24.0142 26.726 23.9885 26.6068 23.9196C26.3256 23.7571 26.232 23.4016 26.3976 23.1256L26.503 22.9495C27.3425 21.5402 28.1013 20.1376 28.7793 18.7418C29.58 17.0935 30.3313 15.3242 31.0334 13.434ZM12.9975 11.797C13.1339 11.775 13.2739 11.8007 13.3931 11.8696C13.6743 12.0321 13.7679 12.3876 13.6023 12.6636L13.4969 12.8398C12.6574 14.2491 11.8986 15.6516 11.2206 17.0474C10.4199 18.6957 9.66859 20.465 8.96653 22.3552C8.85634 22.6519 8.5245 22.8076 8.22004 22.7053L8.05415 22.6492C2.61389 20.7961 0.546821 18.7595 1.85293 16.5395C3.1305 14.368 6.84535 12.7872 12.9975 11.797ZM21.7991 5.15048C26.0323 1.45181 28.7836 0.713018 30.053 2.93412C31.2947 5.10667 30.8453 9.05611 28.7049 14.7824C28.6575 14.9094 28.5674 15.0156 28.4504 15.0824C28.1744 15.2402 27.8239 15.1421 27.6678 14.8632L27.5678 14.6854C26.767 13.2666 25.9328 11.9198 25.0651 10.6451C24.0404 9.13978 22.888 7.61585 21.6078 6.07332C21.4069 5.83121 21.4347 5.4712 21.6703 5.26346L21.7991 5.15048ZM12.144 1.68408C14.6084 1.68408 17.7455 4.01903 21.5552 8.68892C21.6397 8.79249 21.6853 8.92253 21.6842 9.0564C21.6814 9.37236 21.424 9.62626 21.1092 9.6235L20.9084 9.62208C19.304 9.61335 17.7443 9.66901 16.2293 9.78907C14.4402 9.93084 12.5718 10.1736 10.6243 10.5175C10.3187 10.5714 10.0262 10.3699 9.96634 10.0642L9.93409 9.89748C8.88787 4.42188 9.62451 1.68408 12.144 1.68408Z" fill="#FF4154"/>
</svg>
