<svg width="38" height="43" viewBox="0 0 38 43" fill="none" xmlns="http://www.w3.org/2000/svg">
<g clip-path="url(#clip0)">
<path d="M35.6544 20.7552C35.6544 18.5881 33.9038 16.8313 31.7444 16.8313C31.6054 16.8313 31.4684 16.8388 31.3334 16.853L36.7038 0.95752H13.8812L19.2441 16.8392C19.1655 16.8345 19.0865 16.8313 19.0065 16.8313C16.8471 16.8313 15.0965 18.5881 15.0965 20.7552C15.0965 22.5069 16.2404 23.9899 17.8194 24.4945C16.9854 25.9441 15.9361 27.2497 14.7448 28.3775C13.1248 29.9112 11.2708 31.0741 9.26572 31.7907C6.87832 30.56 5.75089 27.8227 6.76822 25.4228C6.88307 25.1519 7.0003 24.8771 7.11248 24.6036C8.84196 24.1985 10.1308 22.6424 10.1308 20.7834C10.1308 18.6163 8.38017 16.8595 6.2207 16.8595C4.06108 16.8595 2.3105 18.6163 2.3105 20.7834C2.3105 22.1124 2.96945 23.286 3.97653 23.9959C3.00868 26.2073 1.58617 28.5214 1.14295 31.2035C0.611773 34.4181 1.14131 37.8302 3.9116 39.7571C10.3636 44.2446 17.3671 36.9752 24.7514 35.1478C27.4275 34.4855 30.3651 34.5922 32.7229 33.2218C34.4936 32.1927 35.6608 30.4872 35.9921 28.5724C36.3193 26.6808 35.8422 24.7975 34.7451 23.2703C35.3125 22.5892 35.6544 21.7125 35.6544 20.7552ZM22.9163 20.7691C22.9163 20.7644 22.9167 20.7598 22.9167 20.7552C22.9167 19.3321 22.1616 18.0859 21.0318 17.3981L25.3003 8.73637L29.5761 17.4899C28.5261 18.1934 27.8342 19.3931 27.8342 20.7552C27.8342 20.7838 27.8358 20.812 27.8364 20.8405L22.9163 20.7691Z" fill="#C63D14"/>
<path d="M36.6102 20.756C36.6102 18.3725 34.899 16.3838 32.6449 15.9589L38.0367 0H12.55L17.9501 15.9913C15.7744 16.4772 14.1424 18.4284 14.1424 20.756C14.1424 22.504 15.0628 24.0393 16.4424 24.902C15.7788 25.894 14.992 26.8276 14.0902 27.6812C12.6603 29.0351 11.067 30.0618 9.34946 30.7373C7.61953 29.6467 6.88821 27.5903 7.64776 25.7986L7.70719 25.6584C7.74434 25.5708 7.78163 25.4828 7.81878 25.3948C9.71883 24.73 11.0865 22.9149 11.0865 20.7842C11.0865 18.0921 8.90401 15.902 6.22138 15.902C3.53876 15.902 1.3564 18.0921 1.3564 20.7842C1.3564 22.143 1.91284 23.3734 2.80848 24.2594C2.64608 24.6068 2.47536 24.9599 2.29989 25.3216C1.48091 27.0096 0.552726 28.923 0.201629 31.0476C-0.49566 35.2671 0.628948 38.6402 3.36833 40.5455C5.03066 41.7016 6.71868 42.1564 8.41741 42.1562C11.6162 42.1561 14.8518 40.5435 18.0166 38.966C20.296 37.8299 22.6528 36.6551 24.9809 36.079C25.8471 35.8646 26.7385 35.7356 27.6821 35.599C29.5533 35.3281 31.4884 35.0481 33.2025 34.0519C35.1892 32.8971 36.5493 30.9599 36.9338 28.7372C37.2639 26.8291 36.8665 24.9181 35.8974 23.2973C36.3493 22.5566 36.6102 21.6864 36.6102 20.756ZM34.7003 20.756C34.7003 22.3912 33.3747 23.7217 31.745 23.7217C30.1157 23.7217 28.7899 22.3912 28.7899 20.756C28.7899 19.1207 30.1157 17.7904 31.745 17.7904C33.3747 17.7904 34.7003 19.1207 34.7003 20.756ZM35.3725 1.91661L30.6112 16.009C30.4048 16.0587 30.2037 16.1213 30.0083 16.1966L25.3048 6.56767L20.5877 16.1397C20.3838 16.0691 20.174 16.0111 19.9589 15.9682L15.2139 1.91661H35.3725ZM19.0074 17.7904C20.6368 17.7904 21.9625 19.1207 21.9625 20.756C21.9625 22.3912 20.6368 23.7217 19.0074 23.7217C17.378 23.7217 16.0522 22.3912 16.0522 20.756C16.0522 19.1207 17.378 17.7904 19.0074 17.7904ZM6.22138 17.8186C7.85102 17.8186 9.17666 19.1489 9.17666 20.7842C9.17666 22.4194 7.85102 23.7499 6.22138 23.7499C4.59205 23.7499 3.26626 22.4194 3.26626 20.7842C3.26626 19.1489 4.59205 17.8186 6.22138 17.8186ZM35.052 28.4093C34.7645 30.0715 33.7414 31.5237 32.2452 32.3932C30.8504 33.2039 29.1791 33.4459 27.4095 33.702C26.4615 33.8391 25.4812 33.9811 24.5236 34.2182C21.9915 34.8447 19.5388 36.0672 17.167 37.2495C12.4206 39.6153 8.32142 41.6584 4.45639 38.9702C1.62518 37.0011 1.75593 33.3577 2.08578 31.3611C2.39141 29.5115 3.21782 27.8079 4.01704 26.1605C4.15537 25.8754 4.28968 25.5961 4.42147 25.3186C4.81789 25.4777 5.23941 25.5861 5.67877 25.6353C4.86529 28.3298 6.14471 31.2594 8.83002 32.6439L9.19746 32.8334L9.58674 32.6943C11.7097 31.9356 13.6657 30.718 15.4009 29.0753C16.5225 28.0136 17.4863 26.8388 18.2789 25.5834C18.5166 25.6194 18.7598 25.6383 19.0074 25.6383C21.69 25.6383 23.8725 23.4482 23.8725 20.756C23.8725 19.3082 23.2406 18.0062 22.2397 17.1112L25.2972 10.9066L28.3858 17.2295C27.4591 18.119 26.8801 19.3705 26.8801 20.756C26.8801 23.4482 29.0624 25.6383 31.745 25.6383C32.7757 25.6383 33.7319 25.3141 34.5193 24.7634C35.0661 25.8866 35.2698 27.1504 35.052 28.4093Z" fill="white"/>
</g>
<defs>
<clipPath id="clip0">
<rect width="38" height="42.1562" fill="white"/>
</clipPath>
</defs>
</svg>
