<svg width="60" height="37" viewBox="0 0 60 37" fill="none" xmlns="http://www.w3.org/2000/svg">
<path d="M14.1573 9.45884H25.4739V10.3601H15.1949V17.1427H24.8609V18.044H15.1949V25.4907H25.5918V26.392H14.1573V9.45884ZM26.4876 9.45884H27.6902L33.0184 16.9055L38.4644 9.45884L45.872 0L33.7021 17.6882L39.9733 26.392H38.7236L33.0184 18.4709L27.2896 26.392H26.0634L32.3818 17.6882L26.488 9.45884H26.4876ZM40.4214 10.3601V9.45884H53.3173V10.3601H47.3764V26.3916H46.3388V10.3601H40.4218H40.4214ZM0 9.45884H1.29681L19.1772 36.2672L11.7879 26.392L1.08433 10.7395L1.03721 26.392H0V9.45884ZM53.2133 25.2186C53.0008 25.2186 52.8419 25.0541 52.8419 24.8416C52.8419 24.6288 53.0008 24.4643 53.2128 24.4643C53.4274 24.4643 53.5838 24.6288 53.5838 24.8416C53.5838 25.0541 53.4274 25.2186 53.2128 25.2186H53.2133ZM54.2322 24.2263H54.7876C54.7953 24.5277 55.0151 24.7299 55.3376 24.7299C55.6984 24.7299 55.9028 24.5126 55.9028 24.1049V21.5233H56.4679V24.1073C56.4679 24.8416 56.0441 25.2645 55.3425 25.2645C54.6844 25.2645 54.2326 24.8542 54.2326 24.2263H54.2322ZM57.2069 24.1938H57.7671C57.8151 24.5403 58.1531 24.7604 58.6402 24.7604C59.094 24.7604 59.4272 24.5248 59.4272 24.2011C59.4272 23.9229 59.2155 23.7556 58.7333 23.6418L58.264 23.5281C57.6059 23.3738 57.3052 23.0545 57.3052 22.518C57.3052 21.8673 57.835 21.4343 58.6297 21.4343C59.3691 21.4343 59.9094 21.8673 59.9419 22.4822H59.3918C59.339 22.1459 59.0465 21.9355 58.6223 21.9355C58.1754 21.9355 57.878 22.1508 57.878 22.4798C57.878 22.7405 58.0698 22.89 58.5443 23.0013L58.9453 23.1C59.692 23.2746 60 23.5785 60 24.1276C60 24.8262 59.4597 25.2645 58.5971 25.2645C57.7899 25.2645 57.2471 24.8465 57.2069 24.1934V24.1938Z" fill="black"/>
</svg>
