<svg width="40" height="41" viewBox="0 0 40 41" fill="none" xmlns="http://www.w3.org/2000/svg">
<path fill-rule="evenodd" clip-rule="evenodd" d="M20.0018 40.0207V32.2649C28.2112 32.2649 34.5838 24.1237 31.4312 15.4832C30.8522 13.8958 29.9332 12.4542 28.7385 11.2594C27.5439 10.0646 26.1024 9.1454 24.5151 8.56625C15.8746 5.43693 7.73337 11.7863 7.73337 19.9957H0C0 6.91167 12.6545 -3.29352 26.3744 0.991829C32.3617 2.8752 37.1464 7.6366 39.0064 13.6247C43.2926 27.3662 33.1099 40.0207 20.0018 40.0207Z" fill="#0080FF"/>
<path fill-rule="evenodd" clip-rule="evenodd" d="M12.3142 32.2872H20.0243V24.5771H12.315L12.3142 32.2872ZM6.37268 38.2288H12.3134V32.288H6.37268V38.2288ZM1.40576 32.288H6.37268V27.3203H1.40576V32.288Z" fill="#0080FF"/>
</svg>
