<svg width="40" height="38" viewBox="0 0 40 38" fill="none" xmlns="http://www.w3.org/2000/svg">
<path d="M27.7158 26.0733C29.1919 25.9231 30.3117 24.672 30.2608 23.1706C30.21 21.6694 28.9373 20.4682 27.4103 20.4682H27.3086C25.7305 20.5183 24.5089 21.8194 24.5598 23.3708C24.6108 24.1215 24.9161 24.772 25.3742 25.2224C23.6436 28.5755 20.9967 31.0276 17.0264 33.0795C14.3286 34.4807 11.5291 34.9812 8.72953 34.631C6.4389 34.3307 4.65734 33.3299 3.53734 31.6782C1.90859 29.2261 1.75594 26.5736 3.13031 23.9213C4.0975 22.0196 5.62437 20.6183 6.59156 19.9177C6.38797 19.2671 6.0825 18.1662 5.92984 17.3656C-1.45094 22.6202 -0.687346 29.7265 1.55234 33.0795C3.23203 35.5818 6.6425 37.1332 10.4092 37.1332C11.4272 37.1332 12.4452 37.033 13.4633 36.7829C19.9787 35.5318 24.9162 31.7283 27.7158 26.0733ZM36.6745 19.8678C32.8059 15.4137 27.105 12.9616 20.5895 12.9616H19.7752C19.317 12.0608 18.3498 11.4602 17.2809 11.4602H17.1791C15.6012 11.5103 14.3797 12.8114 14.4305 14.3629C14.4814 15.8641 15.7539 17.0652 17.2809 17.0652H17.3827C18.5025 17.0152 19.4697 16.3145 19.8769 15.3637H20.7931C24.6617 15.3637 28.3266 16.4646 31.6353 18.6166C34.1803 20.2681 36.0128 22.4201 37.0308 25.0223C37.8961 27.1242 37.8451 29.176 36.9289 30.9276C35.5037 33.5799 33.1114 35.0313 29.9555 35.0313C27.9194 35.0313 25.9852 34.4306 24.967 33.9803C24.4072 34.4807 23.3891 35.2814 22.6764 35.782C24.8653 36.7828 27.105 37.3333 29.2428 37.3333C34.1294 37.3333 37.7434 34.6809 39.1178 32.0286C40.5939 29.1259 40.492 24.1215 36.6745 19.8678ZM10.8164 26.9239C10.8673 28.4253 12.1398 29.6262 13.6669 29.6262H13.7687C15.3467 29.5763 16.5683 28.275 16.5173 26.7237C16.4666 25.2223 15.1939 24.0213 13.6669 24.0213H13.5652C13.4633 24.0213 13.3105 24.0213 13.2089 24.0713C11.1219 20.6683 10.2566 16.9651 10.562 12.9615C10.7655 9.95877 11.7836 7.3564 13.5652 5.20443C15.0412 3.35277 17.8917 2.45198 19.8261 2.40206C25.2216 2.3019 27.512 8.90775 27.6648 11.5602C28.3266 11.7103 29.4464 12.0607 30.21 12.3109C29.5991 4.20379 24.5089 0 19.6225 0C15.0412 0 10.8164 3.25292 9.13656 8.05719C6.79515 14.4629 8.32218 20.6183 11.1727 25.4727C10.9183 25.8229 10.7655 26.3735 10.8164 26.924V26.9239Z" fill="#764ABC"/>
</svg>
