<svg width="53" height="32" viewBox="0 0 53 32" fill="none" xmlns="http://www.w3.org/2000/svg">
<path d="M26.4348 0C19.3856 0 14.9796 3.55563 13.2174 10.6667C15.8609 7.11104 18.9449 5.77771 22.4696 6.66667C24.4805 7.17375 25.9179 8.64563 27.5089 10.2746C30.1007 12.9285 33.1003 16 39.6522 16C46.7014 16 51.1073 12.4444 52.8696 5.33333C50.2261 8.88896 47.1421 10.2223 43.6174 9.33333C41.6065 8.82625 40.1691 7.35437 38.5781 5.72542C35.9862 3.07146 32.9867 0 26.4348 0ZM13.2174 16C6.16818 16 1.76225 19.5556 0 26.6667C2.64348 23.111 5.72747 21.7777 9.25217 22.6667C11.2631 23.1737 12.7005 24.6456 14.2915 26.2746C16.8834 28.9285 19.8829 32 26.4348 32C33.484 32 37.8899 28.4444 39.6522 21.3333C37.0087 24.889 33.9247 26.2223 30.4 25.3333C28.3891 24.8262 26.9517 23.3544 25.3607 21.7254C22.7688 19.0715 19.7693 16 13.2174 16Z" fill="url(#paint0_linear)"/>
<defs>
<linearGradient id="paint0_linear" x1="-1.46872" y1="10.24" x2="44.3909" y2="36.4519" gradientUnits="userSpaceOnUse">
<stop stop-color="#2298BD"/>
<stop offset="1" stop-color="#0ED7B5"/>
</linearGradient>
</defs>
</svg>
