<svg width="40" height="35" viewBox="0 0 40 35" fill="none" xmlns="http://www.w3.org/2000/svg">
<path d="M23.5718 17.3012C23.5718 15.3886 21.9728 13.838 20 13.838C18.0274 13.838 16.4282 15.3886 16.4282 17.3012C16.4282 19.214 18.0274 20.7645 20 20.7645C21.9728 20.7645 23.5718 19.214 23.5718 17.3012Z" fill="#53C1DE"/>
<path fill-rule="evenodd" clip-rule="evenodd" d="M31.6005 10.8716C32.3548 7.89971 33.303 2.38864 29.9605 0.520214C26.6338 -1.34007 22.3046 2.22457 20.0186 4.36425C17.7392 2.24589 13.2885 -1.30351 9.94884 0.570848C6.62334 2.43737 7.64886 7.85706 8.41987 10.8476C5.31775 11.7019 0 13.5419 0 17.3012C0 21.0499 5.31221 23.0517 8.39597 23.9052C7.6221 26.9123 6.64795 32.2546 9.97769 34.1169C13.3297 35.9909 17.7667 32.526 20.0738 30.3629C22.3745 32.5152 26.6621 36.0028 29.9896 34.1352C33.3275 32.2617 32.4581 26.8245 31.6871 23.8166C34.6763 22.9613 40 21.0031 40 17.3012C40 13.578 34.6538 11.723 31.6005 10.8716ZM31.2217 22.2226C30.7154 20.6688 30.032 19.0164 29.1961 17.3094C29.994 15.6428 30.6507 14.0117 31.1429 12.4678C33.3812 13.097 38.2913 14.5351 38.2913 17.3012C38.2913 20.0933 33.5795 21.5449 31.2217 22.2226ZM29.1333 32.7014C26.6507 34.0947 22.9629 30.7595 21.2638 29.1745C22.3909 27.9792 23.5173 26.5896 24.6167 25.0466C26.5505 24.8803 28.3774 24.6082 30.0342 24.237C30.5768 26.3645 31.627 31.3017 29.1333 32.7014ZM10.8315 32.6814C8.34857 31.2934 9.48344 26.5262 10.0528 24.3111C11.6911 24.6625 13.5048 24.9153 15.4432 25.0677C16.5498 26.5776 17.7088 27.9655 18.8768 29.1809C17.4337 30.5344 13.326 34.076 10.8315 32.6814ZM1.70865 17.3012C1.70865 14.4986 6.58942 13.0711 8.87872 12.4435C9.37935 14.022 10.0359 15.6725 10.8283 17.3415C10.0257 19.0354 9.3597 20.7122 8.85447 22.3093C6.67159 21.7035 1.70865 20.1055 1.70865 17.3012ZM10.8049 2.00472C13.298 0.605552 17.1663 4.0131 18.8212 5.54684C17.6592 6.75672 16.5108 8.13413 15.4138 9.63529C13.5325 9.80435 11.7317 10.0759 10.0761 10.4396C9.455 8.02762 8.31455 3.40238 10.8049 2.00472ZM25.839 11.4361C27.1154 11.5923 28.3381 11.8 29.4863 12.0542C29.1416 13.1254 28.712 14.2455 28.206 15.3938C27.4725 14.0444 26.6852 12.7221 25.839 11.4361ZM20.0191 6.73081C20.8072 7.55862 21.5966 8.48307 22.373 9.48596C20.798 9.4138 19.2204 9.41346 17.6454 9.48493C18.4225 8.49131 19.2186 7.56823 20.0191 6.73081ZM11.8087 15.3926C11.3111 14.2483 10.8853 13.1232 10.5376 12.0367C11.6789 11.789 12.896 11.5867 14.164 11.433C13.3155 12.7162 12.5295 14.038 11.8087 15.3926ZM14.2005 23.2876C12.8905 23.1459 11.655 22.9538 10.5141 22.713C10.8672 21.6073 11.3024 20.458 11.8106 19.2891C12.5414 20.6577 13.3393 21.9923 14.2005 23.2876ZM20.0664 27.9887C19.2565 27.1413 18.4487 26.2041 17.6597 25.1961C19.2438 25.2564 20.8309 25.2566 22.4146 25.188C21.6357 26.2144 20.8492 27.153 20.0664 27.9887ZM28.2223 19.2296C28.7569 20.4111 29.2076 21.5543 29.5656 22.6412C28.4057 22.8978 27.1536 23.1045 25.8342 23.2579C26.6867 21.9476 27.4865 20.6048 28.2223 19.2296ZM23.663 23.4588C21.2402 23.6266 18.8021 23.6248 16.3784 23.4725C15.0012 21.5219 13.7753 19.4706 12.717 17.341C13.7701 15.2158 14.9871 13.1686 16.3579 11.2211C18.7834 11.0433 21.2238 11.0429 23.6492 11.2221C25.0081 13.1695 26.2233 15.2115 27.3009 17.3175C26.2361 19.4417 25.0127 21.4931 23.663 23.4588ZM29.1071 1.95546C31.6008 3.35005 30.4908 8.30302 29.946 10.4567C28.2866 10.0855 26.4844 9.80916 24.5977 9.63752C23.4986 8.12005 22.3598 6.74025 21.2165 5.54598C22.8927 3.97921 26.6374 0.574517 29.1071 1.95546Z" fill="#53C1DE"/>
</svg>
