<svg width="34" height="42" viewBox="0 0 34 42" fill="none" xmlns="http://www.w3.org/2000/svg">
<path fill-rule="evenodd" clip-rule="evenodd" d="M33.776 31.3749L19.6565 1.29906C19.481 0.928926 19.2091 0.613251 18.8694 0.385453C18.5297 0.157654 18.135 0.0262085 17.7269 0.00502821C17.3182 -0.0224436 16.9097 0.0630331 16.546 0.252162C16.1822 0.441291 15.8772 0.726832 15.664 1.07773L0.349732 25.9568C0.116854 26.3325 -0.00442139 26.7669 0.000123195 27.2093C0.00466778 27.6516 0.134844 28.0835 0.375391 28.4543L7.86264 40.0841C8.1459 40.5207 8.56229 40.8537 9.04967 41.0335C9.53706 41.2132 10.0693 41.2301 10.5671 41.0817L32.295 34.6352C32.6221 34.5392 32.9249 34.374 33.1829 34.1505C33.4409 33.9271 33.6481 33.6507 33.7904 33.3401C33.9307 33.0311 34.0022 32.6951 33.9999 32.3555C33.9976 32.0159 33.9216 31.6809 33.7771 31.3738L33.776 31.3749ZM30.6149 32.6648L12.1774 38.1333C11.615 38.3011 11.0751 37.8121 11.1921 37.2428L17.7793 5.60634C17.9024 5.0144 18.7174 4.92072 18.975 5.46839L31.1691 31.4418C31.223 31.5575 31.2512 31.6836 31.2519 31.8113C31.2525 31.9391 31.2255 32.0655 31.1727 32.1817C31.1199 32.298 31.0426 32.4014 30.9461 32.4848C30.8496 32.5682 30.7363 32.6296 30.6138 32.6648H30.6149Z" fill="black"/>
</svg>
