<svg width="100" height="36" viewBox="0 0 100 36" fill="none" xmlns="http://www.w3.org/2000/svg">
<path fill-rule="evenodd" clip-rule="evenodd" d="M87.0422 30.5884V35.1602H95.3019C96.9942 35.1602 99.899 33.9225 100 30.4621V28.694C100 25.7387 97.5752 23.9958 95.3019 23.9958H91.1847V21.874H99.3433V17.2769H91.513C89.4923 17.2769 86.7896 18.944 86.7896 22.0509V23.6422C86.7896 26.749 89.4671 28.3403 91.513 28.3403C97.1963 28.3656 90.1491 28.3403 95.4029 28.3403V30.5631L87.0422 30.5884ZM42.7886 29.477C42.7886 29.477 47.2089 29.0981 47.2089 23.3896C47.2089 17.6811 41.854 17.1506 41.854 17.1506H32.2051V35.1602H37.0548V30.8157L41.2478 35.1602H48.4214L42.7886 29.477ZM40.9195 25.7892H37.0548V21.672H40.9447C40.9447 21.672 42.0309 22.0761 42.0309 23.7179C42.0309 25.3598 40.9195 25.7892 40.9195 25.7892ZM59.1817 17.2769H54.2562C50.7452 17.2769 49.558 20.4596 49.558 21.9751V35.1602H54.4835V32.0029H59.1059V35.1602H63.8798V21.9751C63.8798 18.1357 60.3941 17.2769 59.1817 17.2769ZM59.1059 26.9006H54.4582V22.5308C54.4582 22.5308 54.4582 21.5457 55.999 21.5457H57.6914C59.0554 21.5457 59.0806 22.5308 59.0806 22.5308V26.9006H59.1059Z" fill="#CC0000"/>
<path d="M71.2554 17.2771H66.1279V35.1604H71.2554V17.2771Z" fill="#CC0000"/>
<path fill-rule="evenodd" clip-rule="evenodd" d="M78.4541 30.538V17.2771H73.3518V30.538V35.1604H78.4541H85.3498V30.538H78.4541Z" fill="#CC0000"/>
<path fill-rule="evenodd" clip-rule="evenodd" d="M1.76813 35.1603H21.7227C21.7227 35.1603 17.9086 17.7569 30.538 10.7097C33.2912 9.37095 42.0561 4.36969 56.4031 14.9784C56.8578 14.5995 57.2872 14.2964 57.2872 14.2964C57.2872 14.2964 44.1526 1.18707 29.5277 2.65208C22.1773 3.30881 13.1346 10.0024 7.83026 18.843C2.52589 27.6837 1.76813 35.1603 1.76813 35.1603Z" fill="#CC0000"/>
<path fill-rule="evenodd" clip-rule="evenodd" d="M1.76813 35.1603H21.7227C21.7227 35.1603 17.9086 17.7569 30.538 10.7097C33.2912 9.37095 42.0561 4.36969 56.4031 14.9784C56.8578 14.5995 57.2872 14.2964 57.2872 14.2964C57.2872 14.2964 44.1526 1.18707 29.5277 2.65208C22.1773 3.30881 13.1346 10.0024 7.83026 18.843C2.52589 27.6837 1.76813 35.1603 1.76813 35.1603Z" fill="#CC0000"/>
<path fill-rule="evenodd" clip-rule="evenodd" d="M1.76813 35.1604H21.7227C21.7227 35.1604 17.9086 17.757 30.538 10.7097C33.2912 9.37101 42.0561 4.36975 56.4031 14.9785C56.8578 14.5996 57.2872 14.2965 57.2872 14.2965C57.2872 14.2965 44.1526 1.18713 29.5277 2.65214C22.1521 3.30888 13.1094 10.0025 7.80501 18.8431C2.50064 27.6837 1.76813 35.1604 1.76813 35.1604ZM43.3443 4.06664L43.4453 2.3743C43.218 2.248 42.5865 1.94489 40.9952 1.49023L40.8942 3.15732C41.7277 3.43517 42.536 3.73828 43.3443 4.06664Z" fill="#CC0000"/>
<path fill-rule="evenodd" clip-rule="evenodd" d="M40.9447 9.42157L40.8436 11.0129C41.6772 11.0381 42.5107 11.1392 43.3443 11.316L43.4453 9.74994C42.5865 9.57312 41.753 9.47209 40.9447 9.42157ZM31.5989 1.54079H31.8515L31.3463 0C30.5633 0 29.755 0.0505178 28.9214 0.151553L29.4014 1.64183C30.1339 1.56605 30.8664 1.54079 31.5989 1.54079ZM32.8113 10.8361L33.3923 12.5789C34.1248 12.2253 34.8573 11.9222 35.5898 11.6949L35.0341 10.0278C34.1753 10.2804 33.4428 10.5582 32.8113 10.8361ZM21.3438 4.19298L20.2071 2.45011C19.5757 2.77848 18.9189 3.1321 18.2369 3.53625L19.3988 5.30437C20.0556 4.90023 20.687 4.52134 21.3438 4.19298ZM26.5219 15.5595L27.7343 17.3781C28.1637 16.7467 28.6689 16.1657 29.2246 15.5847L28.0879 13.8671C27.5069 14.3976 26.9765 14.9785 26.5219 15.5595ZM22.8593 23.6929L24.9053 25.3094C25.0063 24.3243 25.1831 23.3392 25.4357 22.3541L23.6171 20.9144C23.2887 21.849 23.0614 22.7835 22.8593 23.6929ZM11.7959 11.6949L10.0025 10.1288C9.34579 10.7603 8.71432 11.3918 8.13337 12.0232L10.0783 13.6903C10.6087 13.0083 11.1897 12.3263 11.7959 11.6949ZM4.16772 22.9856L1.26295 21.9247C0.783026 23.0109 0.252589 24.2738 0 24.9558L2.90477 26.0167C3.23314 25.1579 3.76358 23.9202 4.16772 22.9856ZM22.4804 30.1086C22.5309 31.4473 22.6572 32.5335 22.7835 33.2912L25.8146 34.3774C25.5873 33.3923 25.3599 32.2809 25.2084 31.0937L22.4804 30.1086Z" fill="#CC0000"/>
</svg>
