<svg width="31" height="32" viewBox="0 0 31 32" fill="none" xmlns="http://www.w3.org/2000/svg">
<path d="M30.8708 19.1158C30.6848 18.5523 30.1974 18.1599 29.5672 18.0657C29.27 18.0213 28.9297 18.0403 28.5269 18.1233C27.825 18.2681 27.3042 18.3233 26.9241 18.3339C28.3587 15.9117 29.5253 13.1496 30.1968 10.5495C31.2828 6.34522 30.7025 4.42991 30.0244 3.56357C28.2298 1.27048 25.6115 0.0386057 22.4528 0.000912595C20.7677 -0.0196913 19.2885 0.313001 18.5168 0.552249C17.7984 0.425475 17.0258 0.354694 16.2153 0.341605C14.6958 0.317365 13.3532 0.648603 12.2061 1.32938C11.571 1.11462 10.5517 0.811859 9.37463 0.618667C6.60619 0.164168 4.37491 0.518314 2.74284 1.67128C0.766557 3.06726 -0.149591 5.49271 0.0198463 8.88023C0.0736589 9.95576 0.675293 13.2281 1.62259 16.3316C2.16702 18.1154 2.74756 19.5967 3.34811 20.7348C4.19978 22.3485 5.11107 23.2989 6.13412 23.6402C6.70751 23.8312 7.74935 23.965 8.84511 23.0523C8.984 23.2206 9.16932 23.3877 9.41523 23.543C9.72756 23.7399 10.1095 23.9009 10.4909 23.9962C11.8654 24.3398 13.1529 24.2539 14.2513 23.7723C14.2581 23.9676 14.2633 24.1543 14.2677 24.3155C14.275 24.5769 14.2822 24.8332 14.2918 25.073C14.3569 26.6939 14.4672 27.9543 14.7939 28.8361C14.8119 28.8846 14.836 28.9585 14.8615 29.0369C15.0245 29.536 15.297 30.3716 15.9905 31.0259C16.7087 31.7038 17.5773 31.9117 18.3728 31.9117C18.7718 31.9117 19.1525 31.8593 19.4864 31.7878C20.6766 31.5327 22.0283 31.1441 23.0062 29.7518C23.9307 28.4355 24.3801 26.4531 24.4614 23.3294C24.472 23.241 24.4817 23.1567 24.491 23.0763L24.5104 22.9113L24.7282 22.9304L24.7843 22.9342C25.9965 22.9894 27.4788 22.7324 28.3891 22.3095C29.1085 21.9757 31.4136 20.7588 30.8708 19.1158Z" fill="black"/>
<path d="M28.7982 19.4353C25.1937 20.1789 24.9459 18.9585 24.9459 18.9585C28.7515 13.3114 30.3425 6.14329 28.9697 4.38892C25.2241 -0.396666 18.7405 1.86662 18.6323 1.92528L18.5975 1.93159C17.8854 1.78372 17.0885 1.69573 16.1927 1.68107C14.5618 1.6544 13.3246 2.10866 12.3858 2.82059C12.3858 2.82059 0.819675 -1.94427 1.35768 8.8132C1.47209 11.1017 4.63784 26.1294 8.4137 21.5903C9.79381 19.9305 11.1274 18.5271 11.1274 18.5271C11.7896 18.9671 12.5825 19.1916 13.4137 19.111L13.4783 19.0562C13.4582 19.2622 13.4674 19.4638 13.5041 19.7024C12.5314 20.7892 12.8173 20.98 10.8727 21.3803C8.90505 21.7858 10.0609 22.5077 10.8156 22.6965C11.7306 22.9252 13.8472 23.2493 15.2774 21.2472L15.2204 21.4757C15.6015 21.781 15.8691 23.4613 15.8242 24.9847C15.7794 26.5079 15.7495 27.5538 16.0497 28.3706C16.3501 29.1875 16.6494 31.0255 19.2057 30.4778C21.3416 30.0201 22.4485 28.8339 22.6026 26.8552C22.7118 25.4485 22.9592 25.6565 22.9747 24.3988L23.1731 23.8035C23.4018 21.8966 23.2094 21.2814 24.5253 21.5676L24.8453 21.5957C25.8137 21.6397 27.0814 21.4398 27.8255 21.094C29.4275 20.3506 30.3777 19.1091 28.798 19.4353H28.7982Z" fill="#336791"/>
<path d="M13.0627 9.83662C12.7379 9.79141 12.4437 9.83322 12.2949 9.94594C12.2113 10.0093 12.1853 10.0828 12.1783 10.1333C12.1597 10.2672 12.2535 10.4153 12.3112 10.4917C12.4743 10.7079 12.7126 10.8565 12.9484 10.8892C12.9826 10.8941 13.0167 10.8962 13.0505 10.8962C13.4438 10.8962 13.8014 10.59 13.8329 10.3639C13.8723 10.0808 13.4613 9.89212 13.0627 9.83674V9.83662ZM23.8233 9.84558C23.7923 9.62367 23.3974 9.56041 23.0227 9.61252C22.6484 9.66464 22.2856 9.83359 22.3159 10.056C22.3401 10.2289 22.6524 10.5242 23.0221 10.5242C23.0534 10.5242 23.0849 10.5221 23.1166 10.5176C23.3634 10.4834 23.5445 10.3267 23.6305 10.2364C23.7614 10.0988 23.8373 9.94533 23.8233 9.84558Z" fill="white"/>
<path d="M29.9977 19.351C29.8603 18.9354 29.4179 18.8017 28.6829 18.9534C26.5007 19.4038 25.7192 19.0918 25.4626 18.9029C27.1588 16.3189 28.5542 13.1953 29.307 10.281C29.6636 8.90057 29.8605 7.61851 29.8766 6.57352C29.8944 5.4266 29.6991 4.58378 29.2962 4.06892C27.6719 1.99336 25.2879 0.88001 22.4021 0.849467C20.4181 0.827166 18.7419 1.33488 18.417 1.47765C17.7327 1.30748 16.9867 1.20301 16.1745 1.18968C14.6852 1.16556 13.3978 1.52213 12.332 2.24897C11.869 2.07662 10.6725 1.66587 9.20928 1.43014C6.67958 1.02291 4.66935 1.33148 3.23482 2.34775C1.5231 3.56048 0.732876 5.72827 0.885952 8.79076C0.937462 9.82109 1.52456 12.9907 2.45101 16.0262C3.67053 20.0214 4.99622 22.2832 6.391 22.7485C6.55426 22.8029 6.74248 22.8409 6.9501 22.8409C7.4589 22.8409 8.08272 22.6116 8.73175 21.8313C9.52338 20.8817 10.3423 19.9551 11.1874 19.0527C11.7357 19.347 12.3381 19.5113 12.9541 19.5278C12.9553 19.5439 12.9569 19.56 12.9584 19.576C12.8523 19.7025 12.7485 19.8308 12.6469 19.9608C12.22 20.5027 12.1312 20.6156 10.7571 20.8985C10.3663 20.9792 9.32817 21.1931 9.3129 21.9208C9.29642 22.7159 10.5401 23.0498 10.6817 23.0852C11.1755 23.2088 11.6512 23.2697 12.1049 23.2697C13.2082 23.2697 14.1791 22.9071 14.955 22.2055C14.9312 25.0399 15.0493 27.8328 15.3897 28.6838C15.6684 29.3804 16.3493 31.0829 18.5001 31.0828C18.8158 31.0828 19.1631 31.0461 19.5453 30.9642C21.79 30.483 22.7648 29.4908 23.1419 27.3035C23.3437 26.1346 23.69 23.3432 23.8528 21.8459C24.1966 21.9531 24.6391 22.0022 25.1174 22.0021C26.1152 22.0021 27.2665 21.7901 27.9884 21.455C28.7995 21.0783 30.2631 20.154 29.9977 19.351ZM24.652 9.23315C24.6446 9.67517 24.5838 10.0765 24.5193 10.4953C24.4499 10.9458 24.3781 11.4116 24.3601 11.977C24.3423 12.5273 24.411 13.0993 24.4774 13.6526C24.6117 14.7701 24.7495 15.9205 24.2161 17.0557C24.1275 16.8987 24.0485 16.7364 23.9797 16.5698C23.9134 16.4091 23.7695 16.1509 23.5701 15.7936C22.7945 14.4027 20.9783 11.1456 21.9081 9.81649C22.185 9.42089 22.8878 9.01414 24.652 9.23315ZM22.5136 1.74453C25.0993 1.80162 27.1447 2.76892 28.5928 4.61941C29.7034 6.03879 28.4804 12.4972 24.9398 18.0689C24.9042 18.0236 24.8684 17.9785 24.8324 17.9335L24.7875 17.8775C25.7025 16.3665 25.5236 14.8715 25.3643 13.5461C25.2989 13.0021 25.2371 12.4883 25.2528 12.0057C25.2691 11.4943 25.3367 11.0555 25.4021 10.6313C25.4825 10.1086 25.5643 9.56766 25.5418 8.93002C25.5586 8.86312 25.5654 8.7841 25.5566 8.69029C25.499 8.07883 24.8009 6.24883 23.378 4.5925C22.5996 3.68653 21.4646 2.67269 19.9148 1.98887C20.5814 1.8507 21.4929 1.72187 22.5136 1.74453ZM8.0449 21.2602C7.32982 22.12 6.83605 21.9552 6.67364 21.9011C5.61556 21.5482 4.3878 19.3118 3.30536 15.7655C2.36872 12.6969 1.82138 9.61129 1.77799 8.74604C1.64127 6.00958 2.3046 4.10249 3.74968 3.07762C6.10145 1.4099 9.96799 2.40811 11.5217 2.91436C11.4994 2.93642 11.4761 2.95702 11.454 2.97944C8.90446 5.55423 8.96494 9.95332 8.97124 10.2223C8.971 10.326 8.97972 10.4729 8.9916 10.6749C9.03547 11.4149 9.11716 12.792 8.899 14.3514C8.69636 15.8006 9.1431 17.219 10.1245 18.2431C10.2252 18.348 10.331 18.4478 10.4416 18.5422C10.0048 19.01 9.05547 20.0446 8.0449 21.2602ZM10.7694 17.6251C9.97841 16.7997 9.61918 15.6517 9.78364 14.4751C10.0139 12.8277 9.92897 11.3929 9.88327 10.6221C9.87685 10.5142 9.87115 10.4197 9.86788 10.3452C10.2403 10.0149 11.9663 9.09013 13.1973 9.37216C13.7589 9.50076 14.1012 9.88327 14.2435 10.5411C14.9799 13.9472 14.3409 15.3669 13.8275 16.5077C13.7217 16.7427 13.6217 16.9649 13.5364 17.1947L13.4702 17.3724C13.3027 17.8215 13.1468 18.2392 13.0502 18.6358C12.2094 18.6333 11.3914 18.2741 10.7694 17.6249V17.6251ZM10.8984 22.2186C10.6529 22.1572 10.4321 22.0507 10.3025 21.9623C10.4107 21.9114 10.6033 21.8421 10.9374 21.7733C12.5538 21.4406 12.8035 21.2057 13.3486 20.5135C13.4736 20.3547 13.6153 20.1749 13.8115 19.9558L13.8117 19.9555C14.104 19.6283 14.2376 19.6838 14.48 19.7844C14.6765 19.8656 14.8679 20.1119 14.9455 20.3829C14.9822 20.5109 15.0234 20.7537 14.8885 20.9428C13.7497 22.5373 12.0902 22.5168 10.8984 22.2186ZM19.3581 30.0908C17.3806 30.5145 16.6804 29.5055 16.219 28.352C15.9212 27.6074 15.7748 24.2494 15.8787 20.541C15.88 20.4917 15.873 20.4441 15.8594 20.3992C15.8473 20.3107 15.8288 20.2231 15.8042 20.1372C15.6498 19.5976 15.2734 19.1463 14.822 18.9591C14.6426 18.8848 14.3134 18.7485 13.9178 18.8497C14.0022 18.5021 14.1484 18.1095 14.3071 17.6845L14.3736 17.5057C14.4485 17.3041 14.5426 17.0953 14.642 16.8742C15.1793 15.6806 15.9151 14.0458 15.1165 10.3524C14.8173 8.96905 13.8184 8.29348 12.3041 8.45043C11.3963 8.54436 10.5658 8.91063 10.1515 9.12067C10.0624 9.16576 9.98096 9.20939 9.90485 9.25181C10.0205 7.85801 10.4573 5.25317 12.0913 3.60508C13.1202 2.56761 14.4903 2.05517 16.1598 2.0828C19.4491 2.13662 21.5585 3.8247 22.7489 5.23147C23.7748 6.4436 24.3303 7.66469 24.5519 8.3233C22.8848 8.15374 21.751 8.48279 21.1763 9.30453C19.9258 11.092 21.8603 14.5612 22.79 16.2286C22.9606 16.5341 23.1077 16.7982 23.154 16.9105C23.4568 17.6442 23.8487 18.1341 24.1349 18.4917C24.2226 18.6012 24.3077 18.7075 24.3724 18.8003C23.8675 18.9459 22.9606 19.2822 23.0432 20.9634C22.9766 21.807 22.5025 25.7564 22.2617 27.1518C21.9438 28.9953 21.2655 29.6819 19.3581 30.0909V30.0908ZM27.6124 20.6449C27.096 20.8845 26.232 21.0643 25.4112 21.1029C24.5047 21.1453 24.0431 21.0014 23.9345 20.9128C23.8836 19.8651 24.2735 19.7557 24.6862 19.6398C24.7511 19.6216 24.8143 19.6038 24.8754 19.5825C24.9133 19.6134 24.9549 19.644 25.0005 19.6741C25.7291 20.155 27.0288 20.2069 28.8636 19.8281L28.8838 19.8241C28.6363 20.0555 28.2128 20.366 27.6124 20.6449Z" fill="white"/>
</svg>
